<?xml version="1.0" encoding="UTF-8"?>
<svg
  xmlns="http://www.w3.org/2000/svg"
  version="1.1"
  id="svg1"
  viewBox="109.9744 58.9345 572.0612 511.0655"
  role="img"
  aria-labelledby="title"
>
  <title id="title">Transcrypt monogram logo</title>

  <path
    id="Selection"
    fill="#000000"
    stroke="#000000"
    stroke-width="1"
    d="m 131,151 c 1.86,-5.46 5.54,-8.7 9.28,-13 0,0 17.45,-20 17.45,-20 8.91,-10.4 27.39,-32.59 37.27,-40.1 14.92,-11.35 34.11,-18.87 53,-18.9 0,0 18,0 18,0 0,0 35,0 35,0 0,0 27,0 27,0 0,0 13,0 13,0 14.37,0.07 27.23,7.07 35.25,19 2.39,3.54 4.07,6.94 5.39,11 1.79,5.49 2.35,11.25 2.36,17 0,0 0,464 0,464 -22.58,0 -48.37,-4.79 -70,-11.28 C 243.06,537.44 182.01,488.79 145.86,424 c -7.68,-13.76 -13.92,-28.26 -19.44,-43 -15.13,-40.46 -19.76,-90.31 -14.14,-133 0,0 4.93,-28 4.93,-28 0.56,-2.63 1.92,-9.61 3.64,-11.4 1.89,-1.97 5.62,-1.59 8.15,-1.6 0,0 28,0 28,0 9.79,0.19 6.18,3.79 2.87,17 -4.21,16.84 -7.84,36.65 -7.87,54 -0.04,28.16 2.62,51.94 11.02,79 20.12,64.7 67.85,119.02 128.98,148 0,0 0,-354 0,-354 z m 275,419 c 0,0 0,-393 0,-393 0,0 0,-73 0,-73 0.3,-24.95 18.67,-44.96 44,-45 0,0 69,0 69,0 23.75,0 41,-1.54 63,10.31 19.95,10.74 36.68,32.45 51.42,49.69 5.66,6.62 23.68,25.86 26.58,32 0,0 -162,0 -162,0 0,0 0,355 0,355 25.58,-13.34 42.45,-23.01 64,-43.09 52.78,-49.16 78.83,-114.39 78,-185.91 -0.16,-13.1 -3.21,-34.19 -6.37,-47 0,0 -3.65,-14 -3.65,-14 -0.53,-1.74 -1.78,-4.93 -1.2,-6.69 0.94,-2.85 5.83,-2.31 8.22,-2.31 0,0 28,0 28,0 7.54,0.14 7.4,2.52 9.35,11 0,0 5.23,29 5.23,29 5.84,41.36 1.17,91.62 -13.01,131 C 635.22,465 568.71,530.74 480,558.02 456.13,565.37 431,570 406,570 Z"
  />
</svg>

